<?xml version="1.0" encoding="utf-8"?>
<!-- Generator: Adobe Illustrator 18.0.0, SVG Export Plug-In . SVG Version: 6.00 Build 0)  -->
<!DOCTYPE svg PUBLIC "-//W3C//DTD SVG 1.1//EN" "http://www.w3.org/Graphics/SVG/1.1/DTD/svg11.dtd">
<svg version="1.1" id="Livello_1" xmlns="http://www.w3.org/2000/svg" xmlns:xlink="http://www.w3.org/1999/xlink" x="0px" y="0px"
	 width="46px" height="91.5px" viewBox="0 0 46 91.5" enable-background="new 0 0 46 91.5" xml:space="preserve">
<polygon fill="#46277A" points="46,81.8 23.4,91.5 0,81.8 0,0 46,0 "/>
<path fill="#FFFFFF" d="M12.7,22.6c-0.1-0.1-0.3-0.2-0.5-0.2l1.3-1c0.2,0,0.4,0.1,0.5,0.3c0.1,0.2,0.3,0.3,0.5,0.3l-1.3,0.9
	C13,22.8,12.8,22.7,12.7,22.6"/>
<path fill="#FFFFFF" d="M14.4,21.4c-0.1-0.2-0.3-0.3-0.5-0.3l1.4-0.8c0.2,0.1,0.4,0.2,0.5,0.3c0.1,0.2,0.3,0.3,0.5,0.4l-1.4,0.7
	C14.7,21.6,14.5,21.5,14.4,21.4"/>
<path fill="#FFFFFF" d="M16.3,20.3C16.2,20.2,16,20,15.9,20l1.5-0.6c0.2,0.1,0.3,0.2,0.4,0.4c0.1,0.2,0.2,0.3,0.4,0.4l-1.5,0.6
	C16.6,20.6,16.4,20.5,16.3,20.3"/>
<path fill="#FFFFFF" d="M18.3,19.6c-0.1-0.2-0.2-0.3-0.4-0.4l1.6-0.4c0.2,0.1,0.3,0.3,0.4,0.5c0.1,0.2,0.2,0.4,0.4,0.5L18.7,20
	C18.6,19.9,18.4,19.7,18.3,19.6"/>
<path fill="#FFFFFF" d="M20.4,19.1c0-0.2-0.2-0.4-0.3-0.5l1.7-0.2c0.1,0.1,0.3,0.3,0.3,0.5c0,0.2,0.1,0.4,0.3,0.5l-1.6,0.2
	C20.6,19.4,20.5,19.2,20.4,19.1"/>
<path fill="#FFFFFF" d="M22.6,18.8c0-0.2-0.1-0.4-0.3-0.5l1.7,0c0.1,0.2,0.2,0.3,0.2,0.5c0,0.2,0.1,0.4,0.2,0.5l-1.6,0
	C22.7,19.2,22.6,19,22.6,18.8"/>
<path fill="#FFFFFF" d="M24.7,18.9c0-0.2-0.1-0.4-0.2-0.5l1.7,0.2c0.1,0.2,0.2,0.4,0.2,0.6c0,0.2,0,0.4,0.2,0.6L25,19.4
	C24.8,19.3,24.7,19.1,24.7,18.9"/>
<path fill="#FFFFFF" d="M26.8,19.2c0-0.2,0-0.4-0.1-0.6l1.6,0.4c0.1,0.2,0.1,0.4,0.1,0.6c0,0.2,0,0.4,0.1,0.6L27,19.8
	C26.9,19.6,26.8,19.4,26.8,19.2"/>
<path fill="#FFFFFF" d="M28.9,19.8c0.1-0.2,0-0.4,0-0.6l1.5,0.6c0.1,0.2,0.1,0.4,0,0.6c-0.1,0.2-0.1,0.4,0,0.6L29,20.4
	C28.9,20.3,28.9,20,28.9,19.8"/>
<path fill="#FFFFFF" d="M30.9,20.7c0.1-0.2,0.1-0.4,0-0.6l1.4,0.8c0,0.2,0,0.4-0.1,0.6c-0.1,0.2-0.1,0.4-0.1,0.6l-1.3-0.8
	C30.8,21.1,30.8,20.9,30.9,20.7"/>
<path fill="#FFFFFF" d="M25.5,48.2c0,0.1,0.1,0.1,0.1,0.2s0.1,0,0.2,0l1.2-0.3c0.1,0,0.2-0.1,0.2-0.2c0-0.1,0-0.2-0.1-0.2
	c-0.1-0.1-0.2-0.1-0.2-0.1l-1.7,0.5c-0.4,0.1-0.7-0.1-0.8-0.5l-0.1-0.4c-0.1-0.4,0.1-0.7,0.5-0.8l2.2-0.6c0.4-0.1,0.7,0.1,0.8,0.5
	l0.1,0.2l-0.9,0.2c0-0.1-0.2-0.2-0.3-0.2l-1.2,0.3c-0.1,0-0.2,0.2-0.2,0.3c0,0.1,0.2,0.2,0.3,0.2l1.7-0.5c0.2,0,0.4,0,0.5,0.1
	c0.2,0.1,0.3,0.2,0.3,0.4l0.1,0.4c0,0.2,0,0.4-0.1,0.5c-0.1,0.2-0.2,0.3-0.4,0.3l-2.2,0.6c-0.4,0.1-0.7-0.1-0.8-0.5l-0.1-0.2
	L25.5,48.2"/>
<path fill="#FFFFFF" d="M19.7,48.3l0.4-1l-1.8-0.7l-0.2,0.6l0.7,0.3l0.2,0.1l-0.1,0.2c0,0.1-0.1,0.1-0.1,0.1c-0.1,0-0.1,0-0.2,0
	l-1.3-0.5c-0.1,0-0.2-0.2-0.1-0.3l0.4-1c0-0.1,0.1-0.1,0.1-0.1c0.1,0,0.1,0,0.2,0l1.3,0.5c0.1,0,0.1,0.1,0.1,0.1c0,0.1,0,0.1,0,0.2
	l0.9,0.4l0.1-0.2c0.1-0.3,0-0.7-0.4-0.9l-2.3-0.9c-0.3-0.1-0.7,0-0.9,0.4l-0.6,1.4c-0.1,0.3,0,0.7,0.4,0.9l2.3,0.9
	C19.2,48.8,19.6,48.6,19.7,48.3"/>
<path fill="#FFFFFF" d="M15.5,43.4l-3,1.2l0.7,0.6l0.7-0.3l1.1,1l-0.2,0.7l0.7,0.6l0.9-3.1L15.5,43.4z M15.2,45.3l-0.7-0.6l1-0.4
	L15.2,45.3z"/>
<polygon fill="#FFFFFF" points="23.9,46.6 23.9,47.2 21.6,47 21.6,47.5 23.5,47.7 23.5,48.3 21.5,48.1 21.5,48.5 23.7,48.8 
	23.6,49.4 20.4,49.1 20.7,46.2 "/>
<polyline fill="#FFFFFF" points="33.6,44.8 31.5,42.7 30.9,43.3 33,45.4 33.6,44.8 "/>
<path fill="#FFFFFF" d="M31.4,44.3l-0.8,0.5c-0.1-0.1-0.2-0.1-0.3-0.1L29,45.5c-0.1,0.1-0.1,0.2-0.1,0.3l0.6,0.9
	c0,0,0.1,0.1,0.1,0.1c0.1,0,0.1,0,0.2,0l1.2-0.8c0.1-0.1,0.1-0.2,0.1-0.3L31,45.5l0.8-0.5l0.2,0.4c0.2,0.3,0.1,0.7-0.2,0.9l-2,1.3
	c-0.2,0.1-0.3,0.1-0.5,0.1c-0.2,0-0.3-0.1-0.4-0.3l-0.8-1.3c-0.2-0.3-0.1-0.7,0.2-0.9l2-1.3c0.3-0.2,0.7-0.1,0.9,0.2L31.4,44.3"/>
<path fill="#FFFFFF" d="M35.5,35.3c1-0.7,1.6-1.9,1.6-3.1c0-1.2-0.5-2.4-1.4-3.2c-1.2-0.8-2.7-1-4-0.4c-1.1,0.5-2.1,1.2-2.9,2.1
	c-0.4,0.5-0.9,0.9-1.4,1.2c-0.1,0.1-0.3,0.1-0.5,0.2c-0.2,0-0.3,0-0.5-0.1c-0.1,0-0.1-0.1-0.2-0.1c-0.2-0.2-0.3-0.5-0.3-0.7
	c0-0.3,0.1-0.5,0.3-0.7c0.3-0.3,0.6-0.5,0.9-0.7c1.2-0.8,2.2-2,2.8-3.4c0.6-1.3,0.4-2.8-0.4-4c-0.8-0.9-2-1.5-3.2-1.4
	c-1.2,0-2.4,0.6-3.1,1.6c-0.7-1-1.9-1.6-3.1-1.6c-1.2,0-2.4,0.5-3.2,1.4c-0.8,1.2-1,2.7-0.4,4c0.6,1.4,1.5,2.6,2.8,3.4
	c0.3,0.2,0.6,0.4,0.9,0.7c0.2,0.2,0.3,0.5,0.3,0.7c0,0.3-0.1,0.5-0.3,0.7C20.1,32,20,32,19.9,32c-0.2,0.1-0.3,0.1-0.5,0.1
	c-0.2,0-0.3-0.1-0.5-0.2c-0.5-0.3-1-0.7-1.4-1.2c-0.8-0.9-1.8-1.7-2.9-2.1c-1.3-0.6-2.8-0.4-4,0.4c-0.9,0.8-1.5,2-1.4,3.2
	s0.6,2.4,1.6,3.1c-1,0.7-1.6,1.9-1.6,3.1c0,1.2,0.5,2.4,1.4,3.2c1.2,0.8,2.7,1,4,0.4c0.8-0.3,1.6-0.8,2.3-1.5c0.6-0.5,1-1,1.4-1.6
	c0.1-0.1,0.2-0.2,0.3-0.3c0.5-0.4,1.1-0.6,1.8-0.5c0.6,0.1,1.2,0.4,1.5,1c0.1,0.1,0.1,0.2,0.2,0.4c0.2,0.5,0.2,1.1,0.2,1.7
	c-0.1,1-0.3,1.9-0.6,2.8c-0.2,0.4-0.4,0.8-0.6,1.2l2.4,0.8l0.3-1.2c0.1-1,0.2-1.9,0.3-2.9c0-0.8,0.1-1.5,0.3-2.3
	c0-0.1,0.1-0.3,0.2-0.4c0.3-0.5,0.9-0.9,1.5-1c0.6-0.1,1.3,0.1,1.8,0.5c0.1,0.1,0.2,0.2,0.3,0.3c0.4,0.6,0.9,1.2,1.4,1.6
	c0.7,0.6,1.4,1.1,2.3,1.5c1.3,0.6,2.8,0.4,4-0.4c0.9-0.8,1.5-2,1.4-3.2C37.1,37.2,36.5,36,35.5,35.3 M36.4,40.3
	c-1,1.6-3.2,2.2-4.9,1.3c-1.2-0.6-2.3-1.4-3.1-2.5c-0.1-0.2-0.3-0.4-0.5-0.5c-0.5-0.6-1.2-0.9-2-0.8s-1.4,0.6-1.7,1.3
	c-0.1,0.1-0.1,0.2-0.2,0.4c-0.2,0.8-0.3,1.5-0.3,2.3c-0.1,1-0.1,2-0.3,2.9l-0.3,1L21.2,45c0.2-0.3,0.4-0.7,0.5-1
	c0.2-0.5,0.3-1.1,0.5-1.6c0.1-0.5,0.2-1,0.2-1.4c0-0.5-0.1-1-0.2-1.5c0-0.1-0.1-0.3-0.2-0.4c-0.3-0.7-0.9-1.2-1.7-1.3
	c-0.7-0.1-1.5,0.2-2,0.8c-0.2,0.2-0.3,0.4-0.5,0.5c-0.8,1.1-1.9,1.9-3.1,2.5c-1.7,0.9-3.9,0.4-4.9-1.3c-1-1.6-0.6-3.8,0.9-5
	c-1.6-1.2-2-3.3-0.9-5c1-1.7,3.2-2.2,4.9-1.3c0.8,0.4,1.6,0.9,2.3,1.5c0.5,0.5,1,0.9,1.5,1.4c0.4,0.3,0.9,0.4,1.4,0.5
	c0.2,0,0.3-0.1,0.4-0.2c0.1-0.2,0.2-0.5,0.2-0.8c0-0.5-0.2-0.9-0.6-1.2c-0.3-0.2-0.6-0.5-0.9-0.6c-1-0.8-1.8-1.8-2.3-2.9
	c-0.9-1.7-0.4-3.9,1.3-4.9c1.7-1,3.8-0.6,5,0.9c1.2-1.6,3.3-2,5-0.9c1.7,1,2.2,3.2,1.3,4.9c-0.5,1.1-1.3,2.2-2.3,2.9
	c-0.3,0.2-0.6,0.4-0.9,0.6c-0.3,0.3-0.5,0.7-0.6,1.2c0,0.3,0,0.5,0.2,0.8c0.1,0.2,0.2,0.3,0.4,0.2c0.5,0,1-0.2,1.4-0.5
	c0.5-0.4,1-0.9,1.5-1.4c0.7-0.6,1.4-1.2,2.3-1.5c1.7-0.9,3.9-0.4,4.9,1.3c1,1.6,0.6,3.8-0.9,5C37,36.5,37.4,38.6,36.4,40.3"/>
<path fill="#FFFFFF" d="M23,54c0-0.2-0.1-0.4-0.3-0.6c-0.3,0.2-0.6,0.4-0.9,0.7c-0.1,0.1-0.2,0.1-0.3,0.2c0,0.2,0,0.4,0,0.6
	c0.1,0.2,0.1,0.4,0.1,0.5c0.3-0.1,0.7-0.3,0.9-0.5c0.1-0.1,0.2-0.2,0.4-0.3c0.1,0,0.1-0.1,0.2-0.1C23.1,54.3,23,54.1,23,54"/>
<path fill="#FFFFFF" d="M25.2,53.3c0-0.2-0.1-0.4-0.3-0.6c-0.7,0.1-1.3,0.3-1.9,0.6c0.3,0.1,0.5,0.4,0.5,0.7c0,0.1,0,0.1,0,0.2
	c0.6-0.3,1.1-0.4,1.8-0.4C25.2,53.6,25.2,53.5,25.2,53.3"/>
<path fill="#FFFFFF" d="M27,52.9c-0.5-0.2-1.1-0.2-1.7-0.2c0.2,0.1,0.3,0.4,0.3,0.6c0,0.1,0,0.1,0,0.2l0,0.3l0.6,0.1
	C26.7,53.6,26.9,53.3,27,52.9"/>
<path fill="#FFFFFF" d="M28,52.9c-0.2,0-0.4,0-0.6,0.1c-0.1,0.4-0.4,0.8-0.7,1c0.2,0.1,0.4,0.2,0.6,0.4c0.1,0.1,0.2,0.2,0.3,0.3
	c0.6-0.5,0.9-1.2,1-1.9C28.4,53,28.2,53,28,52.9"/>
<path fill="#FFFFFF" d="M26.8,54.7c0.1,0.2,0.2,0.3,0.4,0.4c-0.5,0.3-1,0.4-1.5,0.4c-0.2,0-0.4,0-0.6,0c0-0.1,0-0.3,0-0.4
	c0.1-0.2,0.1-0.5,0-0.7c0.2,0.1,0.4,0.1,0.6,0.1c0.2,0,0.5-0.1,0.7-0.2C26.5,54.4,26.7,54.5,26.8,54.7"/>
<path fill="#FFFFFF" d="M24.6,54.8c-0.1,0.2-0.1,0.3-0.1,0.5c-0.2-0.1-0.5-0.2-0.7-0.3l-0.5-0.3c0.4-0.2,0.8-0.4,1.2-0.5
	c0,0,0,0,0.1,0C24.7,54.4,24.7,54.6,24.6,54.8"/>
<path fill="#FFFFFF" d="M25.2,51.8c0,0.2-0.1,0.4-0.3,0.6c-0.7-0.1-1.3-0.3-1.9-0.5c0.3-0.1,0.5-0.4,0.5-0.7c0-0.1,0-0.1,0-0.2
	c0.5,0.3,1.1,0.4,1.8,0.4C25.2,51.4,25.2,51.6,25.2,51.8"/>
<path fill="#FFFFFF" d="M23,51.1c0-0.2,0-0.3,0.1-0.5c-0.2-0.1-0.4-0.3-0.6-0.4L22.4,50c-0.3-0.2-0.6-0.3-0.9-0.4
	c-0.1,0.1-0.1,0.2-0.1,0.4c0,0.2-0.1,0.5-0.3,0.6c0.2,0,0.5,0.1,0.7,0.2l0.2,0.1c0.3,0.2,0.6,0.4,0.9,0.6C22.9,51.5,23,51.3,23,51.1
	"/>
<path fill="#FFFFFF" d="M20.8,50c0-0.2,0-0.4,0.2-0.5l-0.2,0c-0.8,0-1.5,0.2-2.1,0.7c0.4,0.2,0.8,0.4,1.2,0.5
	c0.2-0.1,0.4-0.1,0.7-0.2C20.7,50.4,20.8,50.2,20.8,50"/>
<path fill="#FFFFFF" d="M18.1,51c0-0.2,0-0.4-0.1-0.5l0.6,0.3c0.3,0.2,0.7,0.3,1.1,0.4c0.1,0.1,0.1,0.3,0.1,0.4
	c-0.1,0.2,0,0.5,0,0.7c-0.5-0.1-1.1-0.3-1.5-0.5C18.1,51.5,18,51.3,18.1,51"/>
<path fill="#FFFFFF" d="M20.2,51.6c0-0.1,0-0.2,0-0.4c0.4,0.1,0.8,0.1,1.2,0c0.3,0.3,0.7,0.6,1.1,0.8c-0.7,0.2-1.4,0.3-2.1,0.3
	C20.1,52.1,20.1,51.8,20.2,51.6"/>
<path fill="#FFFFFF" d="M20.2,53.4c0,0.1,0,0.2,0,0.4c0.4-0.1,0.8-0.1,1.2,0c0.3-0.3,0.7-0.6,1.1-0.8c-0.7-0.2-1.4-0.3-2.1-0.3
	C20.1,52.9,20.1,53.2,20.2,53.4"/>
<path fill="#FFFFFF" d="M21.2,54.4c-0.1,0.2-0.1,0.5,0,0.7c0,0.1,0.1,0.3,0,0.4c-0.1,0-0.3,0-0.4,0c-0.8,0-1.5-0.2-2.1-0.7
	c0.4-0.2,0.8-0.4,1.2-0.5c0.3,0.1,0.6,0.2,0.9,0.2C20.9,54.4,21,54.4,21.2,54.4"/>
<path fill="#FFFFFF" d="M18.1,54c0,0.3,0,0.6-0.2,0.8c0.1-0.1,0.3-0.2,0.4-0.3c0.4-0.3,0.9-0.5,1.4-0.6c0.1-0.1,0.1-0.3,0.1-0.4
	c-0.1-0.2,0-0.5,0-0.7c-0.2,0-0.4,0.1-0.7,0.2c-0.3,0.1-0.6,0.2-0.9,0.4C18.1,53.5,18,53.8,18.1,54"/>
<path fill="#FFFFFF" d="M18.1,52l-0.3-0.1c-0.1,0.4-0.1,0.9,0,1.3c0.3-0.2,0.7-0.3,1-0.5c0-0.1,0-0.2,0-0.4
	C18.6,52.3,18.3,52.1,18.1,52"/>
<path fill="#FFFFFF" d="M17.5,54.3c0,0.2,0,0.3,0,0.5l-0.1,0.5l-0.6,0.7l-0.8-0.7l0.6-0.7c0.3-0.4,0.7-0.7,1.1-1
	C17.5,53.9,17.5,54.1,17.5,54.3"/>
<rect x="15.6" y="56" transform="matrix(0.7622 0.6473 -0.6473 0.7622 40.0885 2.9023)" fill="#FFFFFF" width="1.1" height="0.1"/>
<rect x="15.1" y="56.2" transform="matrix(0.7626 0.6468 -0.6468 0.7626 40.2818 3.2872)" fill="#FFFFFF" width="1.1" height="0.7"/>
<path fill="#FFFFFF" d="M28.2,54.7c0.2-0.3,0.4-0.6,0.6-0.9c0.3,0.2,0.6,0.5,0.9,0.9l0.6,0.7l-0.8,0.7l-0.6-0.7
	C28.7,55.1,28.4,54.9,28.2,54.7"/>
<rect x="29.6" y="55.9" transform="matrix(-0.7622 0.6473 -0.6473 -0.7622 89.3639 79.2006)" fill="#FFFFFF" width="1.1" height="0.1"/>
<rect x="30" y="56.2" transform="matrix(-0.7618 0.6478 -0.6478 -0.7618 90.468 79.7839)" fill="#FFFFFF" width="1.1" height="0.7"/>
<path fill="#FFFFFF" d="M23.6,50.2l0.2-0.2c0.3-0.2,0.6-0.3,0.9-0.4c0.1,0.1,0.1,0.2,0.1,0.4c0,0.2,0.1,0.5,0.3,0.6
	c-0.2,0-0.3,0.1-0.5,0.2c-0.4-0.1-0.9-0.2-1.2-0.5C23.5,50.3,23.6,50.2,23.6,50.2"/>
<path fill="#FFFFFF" d="M27,52.1c-0.1-0.4-0.4-0.7-0.7-0.9c-0.2,0-0.4,0.1-0.6,0.1l0,0.3c0,0.1,0,0.1,0,0.2c0,0.2-0.1,0.5-0.3,0.6
	C25.9,52.4,26.5,52.3,27,52.1"/>
<path fill="#FFFFFF" d="M27.4,50.9c-0.1,0.1-0.2,0.3-0.3,0.5c0.3,0.4,0.4,0.8,0.4,1.2c0.2-0.2,0.4-0.2,0.7-0.2c0.1,0,0.3,0,0.4,0
	c0-0.7-0.3-1.4-0.9-2C27.7,50.6,27.6,50.7,27.4,50.9"/>
<path fill="#FFFFFF" d="M17.5,50.7c0-0.2,0-0.3-0.1-0.5l-1.5-0.7c0.1,0.2,0.1,0.4,0,0.6c0,0.2,0,0.4,0,0.6l1.8,0.8
	C17.5,51.3,17.4,51,17.5,50.7"/>
<path fill="#FFFFFF" d="M15.5,49.9c-0.1,0.2-0.1,0.4,0,0.6L14,49.6c0-0.2,0-0.4,0.1-0.6c0.1-0.2,0.1-0.4,0.1-0.6l1.3,0.8
	C15.5,49.5,15.5,49.7,15.5,49.9"/>
<path fill="#FFFFFF" d="M13.7,48.8c-0.1,0.2-0.1,0.4-0.1,0.6l-1.3-1c0-0.2,0-0.4,0.1-0.6c0.1-0.2,0.2-0.4,0.1-0.6l1.2,1
	C13.8,48.4,13.7,48.6,13.7,48.8"/>
<path fill="#FFFFFF" d="M12,47.4c0.1-0.2,0.1-0.5,0-0.7l-1-1c0,0.2-0.1,0.4-0.2,0.6c-0.1,0.2-0.2,0.3-0.2,0.5l1.2,1.2
	C11.8,47.7,11.9,47.5,12,47.4"/>
<path fill="#FFFFFF" d="M10.5,45.8c-0.1,0.1-0.2,0.3-0.2,0.5l-1-1.3c0-0.2,0.1-0.4,0.3-0.5c0.2-0.1,0.3-0.3,0.3-0.5l0.9,1.3
	C10.7,45.5,10.6,45.7,10.5,45.8"/>
<path fill="#FFFFFF" d="M9.2,44.1c-0.2,0.1-0.3,0.3-0.3,0.5l-0.8-1.4c0.1-0.2,0.2-0.4,0.3-0.5c0.2-0.1,0.3-0.3,0.3-0.5l0.7,1.4
	C9.5,43.8,9.4,43.9,9.2,44.1"/>
<path fill="#FFFFFF" d="M8.2,42.2c-0.2,0.1-0.3,0.2-0.4,0.4l-0.6-1.5c0.1-0.2,0.2-0.3,0.4-0.4c0.2-0.1,0.3-0.2,0.4-0.4l0.6,1.5
	C8.5,41.9,8.4,42.1,8.2,42.2"/>
<path fill="#FFFFFF" d="M7.4,40.2c0.2-0.1,0.3-0.3,0.4-0.4l-0.4-1.5c-0.1,0.2-0.3,0.3-0.5,0.4c-0.2,0.1-0.3,0.2-0.5,0.4L7,40.6
	C7.1,40.4,7.2,40.2,7.4,40.2"/>
<path fill="#FFFFFF" d="M6.9,38.1c0.2-0.1,0.4-0.2,0.5-0.4l-0.2-1.6c-0.1,0.2-0.3,0.3-0.5,0.3c-0.2,0.1-0.4,0.2-0.5,0.3l0.2,1.7
	C6.6,38.2,6.7,38.1,6.9,38.1"/>
<path fill="#FFFFFF" d="M6.7,35.9c0.2-0.1,0.4-0.2,0.5-0.3l0-1.6c-0.1,0.1-0.3,0.2-0.5,0.2c-0.2,0-0.4,0.1-0.5,0.2l0,1.7
	C6.3,36,6.5,36,6.7,35.9"/>
<path fill="#FFFFFF" d="M6.8,33.8c0.2,0,0.4-0.1,0.6-0.2L7.6,32c-0.2,0.1-0.4,0.2-0.6,0.2c-0.2,0-0.4,0.1-0.6,0.2L6.2,34
	C6.4,33.8,6.6,33.8,6.8,33.8"/>
<path fill="#FFFFFF" d="M7.1,31.7c0.2,0,0.4-0.1,0.6-0.2L8.1,30c-0.2,0.1-0.4,0.1-0.6,0.1c-0.2,0-0.4,0-0.6,0.1l-0.4,1.6
	C6.7,31.7,6.9,31.6,7.1,31.7"/>
<path fill="#FFFFFF" d="M7.7,29.6c0.2,0,0.4,0,0.6-0.1L9,28.1c-0.2,0.1-0.4,0.1-0.6,0c-0.2,0-0.4,0-0.6,0l-0.6,1.5
	C7.3,29.5,7.5,29.5,7.7,29.6"/>
<path fill="#FFFFFF" d="M8.6,27.6c0.2,0.1,0.4,0,0.6,0l0.8-1.3c-0.2,0-0.4,0-0.6-0.1c-0.2-0.1-0.4-0.1-0.6-0.1L8,27.6
	C8.2,27.5,8.4,27.5,8.6,27.6"/>
<path fill="#FFFFFF" d="M9.7,25.8c-0.2-0.1-0.4-0.1-0.6-0.1l1-1.3c0.2,0,0.4,0,0.6,0.1c0.2,0.1,0.4,0.2,0.6,0.1l-1,1.2
	C10.1,25.9,9.9,25.9,9.7,25.8"/>
<path fill="#FFFFFF" d="M11.1,24.1c-0.2-0.1-0.3-0.2-0.5-0.2l1.2-1.2c0.2,0,0.4,0.1,0.5,0.2c0.2,0.1,0.3,0.2,0.5,0.2l-1.1,1.1
	C11.5,24.3,11.3,24.2,11.1,24.1"/>
<path fill="#FFFFFF" d="M32.7,21.9c0.1-0.2,0.1-0.4,0.1-0.6l1.3,1c0,0.2,0,0.4-0.1,0.6c-0.1,0.2-0.2,0.4-0.1,0.6l-1.2-1
	C32.6,22.2,32.6,22,32.7,21.9"/>
<path fill="#FFFFFF" d="M34.4,23.2c-0.1,0.2-0.2,0.4-0.1,0.6l1.1,1.1c0-0.2,0.1-0.4,0.2-0.5c0.1-0.2,0.2-0.3,0.2-0.5l-1.2-1.2
	C34.6,22.9,34.5,23.1,34.4,23.2"/>
<path fill="#FFFFFF" d="M35.9,24.8c-0.1,0.2-0.2,0.4-0.2,0.6l0.9,1.3c0-0.2,0.1-0.4,0.3-0.5c0.1-0.1,0.2-0.3,0.3-0.5l-1-1.3
	C36.1,24.5,36,24.6,35.9,24.8"/>
<path fill="#FFFFFF" d="M37.1,26.5c-0.1,0.1-0.2,0.3-0.3,0.5l0.7,1.4c0.1-0.2,0.2-0.4,0.3-0.5c0.2-0.1,0.3-0.3,0.3-0.5L37.4,26
	C37.4,26.2,37.3,26.4,37.1,26.5"/>
<path fill="#FFFFFF" d="M38.2,28.4c-0.2,0.1-0.3,0.3-0.4,0.5l0.6,1.5c0.1-0.2,0.2-0.3,0.4-0.4c0.2-0.1,0.3-0.2,0.4-0.4L38.5,28
	C38.5,28.2,38.3,28.3,38.2,28.4"/>
<path fill="#FFFFFF" d="M38.9,30.4c-0.2,0.1-0.3,0.3-0.4,0.4l0.4,1.5c0.1-0.2,0.3-0.3,0.5-0.4c0.2-0.1,0.3-0.2,0.5-0.4L39.4,30
	C39.3,30.2,39.1,30.4,38.9,30.4"/>
<path fill="#FFFFFF" d="M39.4,32.5c-0.2,0.1-0.4,0.2-0.5,0.4l0.2,1.6c0.1-0.2,0.3-0.3,0.5-0.3c0.2-0.1,0.4-0.2,0.5-0.3l-0.2-1.7
	C39.8,32.4,39.6,32.5,39.4,32.5"/>
<path fill="#FFFFFF" d="M39.7,34.7c-0.2,0.1-0.4,0.2-0.5,0.3l0,1.6c0.1-0.1,0.3-0.2,0.5-0.2c0.2,0,0.4-0.1,0.5-0.2l0-1.7
	C40,34.6,39.9,34.7,39.7,34.7"/>
<path fill="#FFFFFF" d="M39.6,36.8c-0.2,0-0.4,0.1-0.6,0.2l-0.2,1.5c0.2-0.1,0.4-0.2,0.6-0.2c0.2,0,0.4-0.1,0.6-0.2l0.2-1.7
	C40,36.8,39.8,36.8,39.6,36.8"/>
<path fill="#FFFFFF" d="M39.3,39c-0.2,0-0.4,0.1-0.6,0.2l-0.4,1.5c0.2-0.1,0.4-0.1,0.6-0.1c0.2,0,0.4,0,0.6-0.1l0.4-1.6
	C39.7,38.9,39.5,39,39.3,39"/>
<path fill="#FFFFFF" d="M38.6,41c-0.2,0-0.4,0-0.6,0.1l-0.6,1.4c0.2-0.1,0.4-0.1,0.6,0c0.2,0.1,0.4,0,0.6,0l0.6-1.5
	C39,41.1,38.8,41.1,38.6,41"/>
<path fill="#FFFFFF" d="M37.8,43c-0.2-0.1-0.4,0-0.6,0l-0.8,1.3c0.2,0,0.4,0,0.6,0.1c0.2,0.1,0.4,0.1,0.6,0.1l0.8-1.4
	C38.1,43.1,37.9,43.1,37.8,43"/>
<path fill="#FFFFFF" d="M36.6,44.8c-0.2-0.1-0.4-0.1-0.6-0.1L35,46c0.2,0,0.4,0,0.6,0.1c0.2,0.1,0.4,0.1,0.6,0.1l1-1.3
	C37,45,36.8,44.9,36.6,44.8"/>
<path fill="#FFFFFF" d="M35.3,46.5c-0.2-0.1-0.4-0.2-0.6-0.1l-1.1,1.1c0.2,0,0.4,0.1,0.5,0.2c0.2,0.1,0.3,0.2,0.5,0.2l1.2-1.2
	C35.6,46.7,35.4,46.6,35.3,46.5"/>
<path fill="#FFFFFF" d="M33.7,48c-0.2-0.1-0.4-0.2-0.6-0.2l-1.3,0.9c0.2,0,0.4,0.1,0.5,0.3c0.1,0.1,0.3,0.2,0.5,0.3l1.3-1
	C34,48.2,33.8,48.1,33.7,48"/>
<path fill="#FFFFFF" d="M25.4,50c0,0.2,0.1,0.4,0.2,0.6c0.4,0,0.9,0.2,1.2,0.5c0-0.2,0.1-0.5,0.3-0.6c0.1-0.1,0.2-0.2,0.2-0.3
	c-0.5-0.4-1.1-0.6-1.7-0.6c-0.1,0-0.3,0-0.4,0C25.4,49.7,25.4,49.9,25.4,50"/>
<path fill="#FFFFFF" d="M32,49.3c-0.1-0.1-0.3-0.2-0.5-0.3l-1.4,0.7c0.2,0.1,0.4,0.2,0.5,0.4c0.1,0.2,0.3,0.3,0.5,0.3l1.4-0.8
	C32.3,49.5,32.1,49.4,32,49.3"/>
<path fill="#FFFFFF" d="M30.1,50.3c-0.1-0.2-0.3-0.3-0.5-0.4l-1.3,0.6c0.2,0.3,0.4,0.6,0.5,1l1.8-0.8C30.3,50.6,30.2,50.5,30.1,50.3
	"/>
<path fill="#FFFFFF" d="M23.2,42.7l-0.5-3.2c-0.4,0-0.8,0-1.1,0c-0.2,1.1-0.6,2.1-1.4,3c0.7,1.1,1.8,2,3,2.5c1.2-0.5,2.2-1.4,3-2.5
	c-0.7-0.8-1.2-1.9-1.4-3c-0.4,0-0.8,0-1.1,0L23.2,42.7z"/>
<path fill="#FFFFFF" d="M19.6,39.2c0.5,0.1,1,0.1,1.5,0.2c-0.1,0.6-0.2,1.1-0.5,1.6c-0.3,0.5-0.7,0.9-1.2,1.1
	c-0.5,0.2-1,0.1-1.4-0.2c-0.4-0.3-0.7-0.7-0.8-1.2c0.6,0.2,1.2,0.1,1.7-0.1c0.3-0.1,0.5-0.4,0.6-0.6C19.6,39.7,19.6,39.5,19.6,39.2"
	/>
<path fill="#FFFFFF" d="M26.7,39.2c-0.5,0.1-1,0.1-1.5,0.2c0.1,0.6,0.2,1.1,0.5,1.6c0.3,0.5,0.7,0.9,1.2,1.1c0.5,0.2,1,0.1,1.4-0.2
	c0.4-0.3,0.7-0.7,0.8-1.2c-0.6,0.2-1.2,0.1-1.7-0.1c-0.3-0.1-0.5-0.4-0.6-0.6C26.8,39.7,26.7,39.5,26.7,39.2"/>
<path fill="#FFFFFF" d="M18.2,38.3c0,0.4,2.2,0.8,5,0.8c2.7,0,5-0.4,5-0.8c0-0.4-2.2-0.8-5-0.8C20.4,37.5,18.2,37.9,18.2,38.3"/>
<path fill="#FFFFFF" d="M23.2,28.7l-0.6,8.5c-0.3,0-0.7,0-1,0c-0.1-0.8-0.3-1.5-0.5-2.2c-0.3-0.9-0.6-1.8-1-2.6
	c-0.4-0.8-0.6-1.7-0.8-2.6c-0.3-1.4,0.1-2.9,1.1-3.9c0.6-0.6,1.2-1.1,1.8-1.6c0.5-0.4,0.8-0.9,1-1.5c0.2,0.6,0.5,1.1,1,1.5
	c0.6,0.5,1.2,1.1,1.8,1.6c1,1,1.4,2.5,1.1,3.9c-0.2,0.9-0.4,1.7-0.8,2.6c-0.4,0.9-0.7,1.7-1,2.6c-0.3,0.7-0.4,1.5-0.5,2.2
	c-0.3,0-0.7,0-1,0L23.2,28.7z"/>
<path fill="#FFFFFF" d="M17.5,31.8c-0.6-0.4-1.3-0.6-2-0.6c-1.3,0-2.5,0.8-3.1,2c-0.3,0.6-0.4,1.2-0.4,1.9c0,2,1.5,3.7,3.5,3.9
	c-0.3-0.9,0-2,0.8-2.6c0.5-0.3,1.1-0.3,1.6,0c0.5,0.3,0.9,0.6,1.2,1.1c0.7-0.1,1.3-0.2,2-0.3c-0.3-1.5-0.9-2.8-1.8-4
	C18.8,32.7,18.2,32.2,17.5,31.8 M15.4,34.7l0.3,1.1l-0.9-0.6l-0.9,0.7l0.3-1.1L13.4,34h1.1l0.3-1.1l0.3,1.1h1.1L15.4,34.7z"/>
<path fill="#FFFFFF" d="M33.9,33.2c-0.6-1.2-1.7-2-3.1-2c-0.7,0-1.4,0.2-2,0.6c-0.7,0.4-1.2,0.9-1.7,1.5c-0.9,1.2-1.5,2.5-1.8,4
	c0.7,0,1.3,0.1,2,0.3c0.3-0.4,0.7-0.8,1.2-1.1c0.5-0.3,1.1-0.3,1.6,0c0.8,0.6,1.1,1.6,0.8,2.6c2-0.2,3.6-1.9,3.5-3.9
	C34.3,34.4,34.2,33.8,33.9,33.2 M32.4,35.9l-0.9-0.6l-0.9,0.6l0.3-1.1L30.1,34h1.1l0.3-1.1l0.3,1.1H33l-0.9,0.7L32.4,35.9z"/>
</svg>
